<?xml version="1.0" standalone="no"?>
<!DOCTYPE svg PUBLIC "-//W3C//DTD SVG 20010904//EN"
 "http://www.w3.org/TR/2001/REC-SVG-20010904/DTD/svg10.dtd">
<svg version="1.0" xmlns="http://www.w3.org/2000/svg"
 width="988.000000pt" height="988.000000pt" viewBox="0 0 988.000000 988.000000"
 preserveAspectRatio="xMidYMid meet">
<metadata>
Created by potrace 1.14, written by Peter Selinger 2001-2017
</metadata>
<g transform="translate(0.000000,988.000000) scale(0.100000,-0.100000)"
fill="#000000" stroke="none">
<path d="M4315 9160 l-720 -720 -1027 0 -1028 0 0 -1027 0 -1028 -722 -722
-723 -723 723 -723 722 -722 0 -1028 0 -1027 1027 0 1028 0 722 -722 723 -723
723 723 722 722 1028 0 1027 0 0 1140 0 1140 -957 0 -958 0 -102 -114 c-280
-314 -643 -526 -1048 -614 -328 -72 -615 -67 -940 14 -698 176 -1263 745
-1435 1447 -172 697 33 1418 541 1912 63 61 141 131 174 156 593 453 1372 543
2047 239 258 -117 509 -305 687 -513 l73 -87 959 0 959 0 0 1140 0 1140 -1028
0 -1027 0 -720 720 c-396 396 -722 720 -725 720 -3 0 -329 -324 -725 -720z"/>
</g>
</svg>
